<svg width="100" height="73" viewBox="0 0 100 73" fill="none" xmlns="http://www.w3.org/2000/svg">
<path fill-rule="evenodd" clip-rule="evenodd" d="M79.1832 40.9855C77.0294 55.4165 64.6433 66.4821 49.6859 66.4821C44.1897 66.4821 39.0408 64.988 34.6191 62.3819C41.6626 60.1616 49.3826 57.1136 57.2722 53.3467C65.4326 49.4506 72.8854 45.21 79.1832 40.9855ZM79.3095 32.9642C72.6781 37.7867 64.1551 42.8447 54.4899 47.4593C45.1131 51.9362 36.0938 55.3118 28.3422 57.4448C23.0922 52.0405 19.857 44.65 19.857 36.5C19.857 19.9413 33.2118 6.51786 49.6859 6.51786C64.9698 6.51786 77.5689 18.0719 79.3095 32.9642ZM85.9969 36.0726C85.9985 36.2149 85.9993 36.3573 85.9993 36.5C85.9993 56.6584 69.7412 73 49.6859 73C40.8949 73 32.8335 69.8601 26.5511 64.6352C24.9616 65.0171 23.4258 65.3455 21.9515 65.6189C17.072 66.524 12.6786 66.8626 9.16629 66.4378C5.84307 66.0359 2.25323 64.8021 0.690159 61.4945C-0.219675 59.5693 -0.137422 57.5197 0.403032 55.6716C0.935987 53.8491 1.96191 52.031 3.25316 50.2755C5.59879 47.0865 9.15879 43.6516 13.5549 40.1813C13.4342 38.9706 13.3725 37.7426 13.3725 36.5C13.3725 16.3416 29.6305 0 49.6859 0C59.7714 0 68.8966 4.13268 75.4768 10.8052C80.7612 9.65571 85.5073 9.11247 89.3307 9.33571C93.2207 9.56284 97.5424 10.682 99.3048 14.4115C100.868 17.7191 99.5512 21.2955 97.7615 24.1385C95.87 27.1434 92.833 30.3523 89.0522 33.5821C88.0901 34.4039 87.0705 35.2351 85.9969 36.0726ZM80.0939 16.5405C83.6264 15.9316 86.6161 15.7061 88.9547 15.8426C92.5898 16.0548 93.3643 17.0319 93.4475 17.2081C93.5091 17.3385 93.7781 18.2766 92.2818 20.6535C90.9202 22.8164 88.517 25.4573 85.1023 28.4015C84.1356 24.112 82.4173 20.1093 80.0939 16.5405ZM15.0183 47.3966C12.1411 49.8658 9.93639 52.1531 8.46741 54.1503C7.43384 55.5555 6.86698 56.6801 6.62438 57.5097C6.38927 58.3136 6.5132 58.6254 6.54749 58.698C6.60911 58.8284 7.16262 59.6306 9.94098 59.9666C12.5303 60.2798 16.1967 60.0584 20.7748 59.2093C20.9135 59.1836 21.0528 59.1573 21.1928 59.1305C18.4702 55.6719 16.3575 51.7059 15.0183 47.3966Z" fill="black"/>
</svg>
